<svg width="167" height="30" viewBox="0 0 167 30" fill="none" xmlns="http://www.w3.org/2000/svg">
<path d="M36.5 18.44V15.905H40.805V14.915H32.525V12.74H40.49V8.645H31.28V9.65H39.29V11.75H31.31V15.905H35.255V18.44H29.78V19.445H42.005V18.44H36.5ZM52.9238 10.43C52.9238 12.095 52.9238 14.105 52.3838 16.85L53.6138 16.985C54.1238 14.075 54.1388 12.14 54.1388 10.43V9.095H53.5688V9.08H44.9138V10.085H52.9238V10.43ZM43.6088 18.125V19.145H55.7738V18.125H43.6088ZM68.4327 7.67H67.2027V17.495H68.4327V7.67ZM64.7277 11.9C64.7277 9.965 63.1977 8.6 61.2027 8.6C59.2077 8.6 57.7077 9.965 57.7077 11.9C57.7077 13.85 59.2077 15.23 61.2027 15.23C63.1977 15.23 64.7277 13.85 64.7277 11.9ZM58.9077 11.9C58.9077 10.595 59.8827 9.665 61.2027 9.665C62.5377 9.665 63.5277 10.595 63.5277 11.9C63.5277 13.235 62.5377 14.165 61.2027 14.165C59.8827 14.165 58.9077 13.235 58.9077 11.9ZM61.0077 19.805V16.49H59.7777V20.81H68.8377V19.805H61.0077ZM84.986 11.135V7.67H83.756V15.815H84.986V12.155H86.981V11.135H84.986ZM82.316 13.985C80.396 13.34 79.061 11.63 79.061 9.83V8.345H77.831V9.725C77.831 11.75 76.526 13.625 74.486 14.345L75.131 15.32C76.706 14.72 77.906 13.49 78.461 11.915C79.061 13.295 80.216 14.405 81.671 14.945L82.316 13.985ZM80.711 16.19C77.966 16.19 76.271 17.09 76.271 18.65C76.271 20.21 77.966 21.095 80.711 21.095C83.426 21.095 85.136 20.21 85.136 18.65C85.136 17.09 83.426 16.19 80.711 16.19ZM80.711 20.135C78.716 20.135 77.501 19.61 77.501 18.65C77.501 17.69 78.716 17.15 80.711 17.15C82.706 17.15 83.906 17.69 83.906 18.65C83.906 19.61 82.706 20.135 80.711 20.135ZM98.6048 7.655V13.055H96.8198V7.955H95.6498V20.45H96.8198V14.06H98.6048V21.11H99.7748V7.655H98.6048ZM90.0548 13.73H93.9698V12.755H90.0548V10.205H94.1798V9.2H88.8698V17.78H89.7548C91.9148 17.78 93.2198 17.75 94.7798 17.435L94.6598 16.415C93.2198 16.7 92.0048 16.76 90.0548 16.76V13.73ZM111.558 14.06C114.363 14.06 116.268 12.935 116.268 11.12C116.268 9.32 114.363 8.195 111.558 8.195C108.753 8.195 106.863 9.32 106.863 11.12C106.863 12.935 108.753 14.06 111.558 14.06ZM111.558 9.185C113.613 9.185 115.008 9.935 115.008 11.12C115.008 12.32 113.613 13.07 111.558 13.07C109.518 13.07 108.123 12.32 108.123 11.12C108.123 9.935 109.518 9.185 111.558 9.185ZM117.678 15.32H105.498V16.325H108.633V21.11H109.878V16.325H113.253V21.11H114.498V16.325H117.678V15.32ZM129.077 7.67V21.11H130.307V7.67H129.077ZM124.097 10.055H127.262V9.035H119.747V10.055H122.867V11.765C122.867 14.09 121.232 16.61 119.297 17.54L120.017 18.53C121.517 17.78 122.882 16.04 123.482 14.09C124.127 15.935 125.447 17.48 127.007 18.2L127.697 17.21C125.717 16.37 124.097 14.045 124.097 11.765V10.055Z" fill="#333333"/>
<path d="M24.9229 15.0021C24.9229 17.3609 24.2234 19.6666 22.9128 21.6277C21.6023 23.5889 19.7396 25.1173 17.5604 26.0198C15.3811 26.9222 12.9832 27.1581 10.6698 26.6977C8.3565 26.2372 6.23168 25.101 4.56411 23.4329C2.89654 21.7647 1.76114 19.6395 1.30149 17.326C0.84185 15.0125 1.07862 12.6146 1.98185 10.4357C2.88508 8.25674 4.4142 6.39461 6.37582 5.08479C8.33744 3.77497 10.6434 3.0763 13.0022 3.07715C14.568 3.07715 16.1184 3.38563 17.565 3.98497C19.0116 4.58431 20.3259 5.46276 21.4329 6.57016C22.5399 7.67755 23.4179 8.99218 24.0167 10.439C24.6155 11.8857 24.9234 13.4363 24.9229 15.0021Z" fill="#03C75A"/>
<path d="M24.8328 15.0021C24.8328 21.5862 19.5947 26.9228 13.1393 26.9228C6.68381 26.9228 1.42859 21.5862 1.42859 15.0021C1.42859 8.4181 6.67953 3.07715 13.1393 3.07715C19.599 3.07715 24.8328 8.41382 24.8328 15.0021Z" fill="#03C75A"/>
<path d="M13.0021 27.0043C10.6283 27.0043 8.30786 26.3004 6.33411 24.9816C4.36037 23.6628 2.82203 21.7883 1.91361 19.5952C1.0052 17.4021 0.767518 14.9888 1.23062 12.6606C1.69373 10.3325 2.83682 8.19388 4.51535 6.51535C6.19388 4.83682 8.33246 3.69373 10.6606 3.23062C12.9888 2.76752 15.4021 3.0052 17.5952 3.91361C19.7883 4.82203 21.6628 6.36037 22.9816 8.33411C24.3004 10.3079 25.0043 12.6283 25.0043 15.0021C25.0043 18.1853 23.7398 21.2381 21.4889 23.4889C19.2381 25.7398 16.1853 27.0043 13.0021 27.0043ZM13.0021 4.28595C10.8827 4.28595 8.81082 4.91444 7.04855 6.09195C5.28628 7.26946 3.91275 8.94311 3.10167 10.9012C2.29059 12.8594 2.07837 15.014 2.49186 17.0928C2.90534 19.1715 3.92596 21.081 5.42465 22.5796C6.92334 24.0783 8.83278 25.0989 10.9115 25.5124C12.9903 25.9259 15.1449 25.7137 17.1031 24.9026C19.0612 24.0915 20.7348 22.718 21.9123 20.9557C23.0898 19.1935 23.7183 17.1216 23.7183 15.0021C23.7183 12.16 22.5893 9.43433 20.5796 7.42465C18.57 5.41497 15.8443 4.28595 13.0021 4.28595Z" fill="#03C75A"/>
<path d="M11.6648 19.9059C11.4932 19.905 11.3287 19.8374 11.2061 19.7173L7.66976 16.1809C7.61009 16.121 7.56281 16.0499 7.53063 15.9716C7.49844 15.8934 7.48198 15.8096 7.48218 15.725C7.48238 15.6405 7.49924 15.5568 7.53179 15.4787C7.56434 15.4006 7.61195 15.3297 7.6719 15.2701C7.73185 15.2104 7.80296 15.1631 7.88119 15.1309C7.95941 15.0987 8.0432 15.0823 8.12778 15.0825C8.21237 15.0827 8.29608 15.0995 8.37415 15.1321C8.45222 15.1646 8.52311 15.2122 8.58278 15.2722L11.639 18.3285L17.5072 11.813C17.5619 11.7448 17.63 11.6885 17.7072 11.6475C17.7843 11.6065 17.8691 11.5817 17.9562 11.5746C18.0433 11.5674 18.131 11.5781 18.2138 11.606C18.2967 11.6339 18.373 11.6784 18.438 11.7367C18.5031 11.7951 18.5556 11.8661 18.5923 11.9454C18.629 12.0248 18.6491 12.1107 18.6515 12.1981C18.6538 12.2855 18.6383 12.3724 18.6059 12.4536C18.5736 12.5348 18.525 12.6085 18.4631 12.6703L12.1448 19.6916C12.0865 19.7572 12.0154 19.8101 11.9357 19.8469C11.856 19.8838 11.7697 19.9039 11.6819 19.9059H11.6648Z" fill="white"/>
</svg>
